<svg xmlns="http://www.w3.org/2000/svg" viewBox="0 0 1440 44">
    <defs>
        <style>
            .cls-1 {
            fill: none;
            }

            .cls-2 {
            fill: none;
            stroke: #2c4a83;
            stroke-linecap: round;
            stroke-linejoin: round;
            stroke-width: 3px;
            }

            .cls-3 {
            fill: #2c4a83;
            }

            .cls-4 {
            fill: #fce67a;
            }
        </style>
        <radialGradient id="radial-gradient" cx="720" cy="22" r="509.31"
                        gradientTransform="translate(0 -2.23) scale(1 1.1)" gradientUnits="userSpaceOnUse">
            <stop offset="0" stop-color="#fed23f"/>
            <stop offset="1" stop-color="#fbe958"/>
        </radialGradient>
    </defs>
    <g id="Layer_2" data-name="Layer 2">
        <rect class="cls-1" width="1440" height="44"/>
        <circle class="cls-2" cx="1137.93" cy="27.12" r="4.46"/>
        <circle class="cls-2" cx="276.5" cy="22" r="4.46"/>
        <path class="cls-2"
              d="M1013.45,15.13h-3.85V11.28a2,2,0,0,0-4,0v3.85h-3.85a2,2,0,1,0,0,4h3.85V23a2,2,0,0,0,4,0V19.15h3.85a2,2,0,0,0,0-4Z"/>
        <rect class="cls-3" x="692.99" y="5.85" width="71.83" height="32.59" rx="10.61"/>
        <g>
            <path class="cls-3"
                  d="M475.63,24.83a2,2,0,0,1-.57,1.61,2.68,2.68,0,0,1-3,0,2,2,0,0,1-.56-1.61,1.85,1.85,0,0,1,.56-1.54,2.88,2.88,0,0,1,3,0A1.82,1.82,0,0,1,475.63,24.83Z"/>
            <path class="cls-3"
                  d="M481.85,22.63a.63.63,0,0,0-.05-.21c0-.08-.09-.24-.19-.48l-1.72-4.5,3.57-1.61,2.56,6.7a.47.47,0,0,0,.47.33h.67a.51.51,0,0,1,.22.05.45.45,0,0,1,.15.24,4.54,4.54,0,0,1,.07.59c0,.27,0,.63,0,1.09s0,.88,0,1.16a5.14,5.14,0,0,1-.07.63c0,.14-.09.22-.15.25a.51.51,0,0,1-.22,0h-1a5.52,5.52,0,0,1-1-.12,2,2,0,0,1-1.05-.57,2.77,2.77,0,0,1-1,.57,2.85,2.85,0,0,1-.78.12H477l-.33-4.05h4.91C481.75,22.86,481.85,22.78,481.85,22.63Z"/>
            <path class="cls-3"
                  d="M488,22.86a.38.38,0,0,0,.25-.09.33.33,0,0,0,.1-.24V19.4h3.83v3.13a.29.29,0,0,0,.33.33h.8a.51.51,0,0,1,.22.05.45.45,0,0,1,.15.24,3.27,3.27,0,0,1,.07.59c0,.27,0,.63,0,1.09s0,.88,0,1.16a3.7,3.7,0,0,1-.07.63c0,.14-.09.22-.15.25a.51.51,0,0,1-.22,0h-.65a6.64,6.64,0,0,1-1.31-.12,2,2,0,0,1-1-.57,2.51,2.51,0,0,1-1,.57,4.24,4.24,0,0,1-.94.12h-1.15a.48.48,0,0,1-.22,0,.38.38,0,0,1-.15-.24,3.28,3.28,0,0,1-.07-.6c0-.26,0-.63,0-1.09s0-.87,0-1.16a3.42,3.42,0,0,1,.07-.61.44.44,0,0,1,.15-.26.48.48,0,0,1,.22-.05Zm5.2,8.09h-6v-2.9h6Z"/>
            <path class="cls-3"
                  d="M494.07,22.86a.38.38,0,0,0,.25-.09.33.33,0,0,0,.1-.24V19.4h3.7v3.13a.3.3,0,0,0,.11.24.37.37,0,0,0,.25.09.35.35,0,0,0,.23-.09.33.33,0,0,0,.1-.24V19.4h3.7v3.13a.33.33,0,0,0,.1.24.39.39,0,0,0,.26.09.35.35,0,0,0,.23-.09.33.33,0,0,0,.1-.24V19.4h3.7v3.46a4.36,4.36,0,0,1-.34,1.81,3.62,3.62,0,0,1-.9,1.26,3.78,3.78,0,0,1-1.29.74,4.71,4.71,0,0,1-1.5.24,5.45,5.45,0,0,1-1.05-.12,1.92,1.92,0,0,1-1-.57,3,3,0,0,1-1,.57,3.28,3.28,0,0,1-.72.12h-.57a5.45,5.45,0,0,1-1.05-.12,2,2,0,0,1-1.05-.57,2.55,2.55,0,0,1-1,.57,3.33,3.33,0,0,1-.74.12h-1.38a.51.51,0,0,1-.22,0,.38.38,0,0,1-.15-.24,3.28,3.28,0,0,1-.07-.6c0-.26,0-.63,0-1.09s0-.87,0-1.16a3.42,3.42,0,0,1,.07-.61.44.44,0,0,1,.15-.26.51.51,0,0,1,.22-.05Zm9.36-4.62h-6V15.36h6Zm-1.51-3.46h-3V11.9h3Z"/>
            <path class="cls-3"
                  d="M513.11,22.86a.48.48,0,0,1,.22.05.36.36,0,0,1,.15.24,3.1,3.1,0,0,1,.08.59c0,.27,0,.63,0,1.09s0,.88,0,1.16a3.5,3.5,0,0,1-.08.63c0,.14-.08.22-.15.25a.48.48,0,0,1-.22,0h-1a4.51,4.51,0,0,1-1.83-.32,3.33,3.33,0,0,1-1.21-.87,3.45,3.45,0,0,1-.67-1.29,5.78,5.78,0,0,1-.21-1.57V14.1H512v8.43c0,.22.11.33.34.33Z"/>
            <path class="cls-3"
                  d="M514.4,22.86a.35.35,0,0,0,.23-.09.33.33,0,0,0,.1-.24V19.4h3.8v3.46a5,5,0,0,1-.28,1.76,3.47,3.47,0,0,1-.79,1.27,3.28,3.28,0,0,1-1.21.76,4.19,4.19,0,0,1-1.52.26h-1.62a.54.54,0,0,1-.22,0,.34.34,0,0,1-.14-.24,3.1,3.1,0,0,1-.08-.6c0-.26,0-.63,0-1.09s0-.87,0-1.16a3.23,3.23,0,0,1,.08-.61.39.39,0,0,1,.14-.26.54.54,0,0,1,.22-.05ZM517.86,31H514v-2.9h3.82Z"/>
            <path class="cls-3"
                  d="M535.86,26.91a11.36,11.36,0,0,1-1.56-.1,3,3,0,0,1-1.34-.53,3.84,3.84,0,0,1-1.2.49,6.43,6.43,0,0,1-1.32.14,5,5,0,0,1-1.59-.24A3.57,3.57,0,0,1,527.6,26a3.16,3.16,0,0,1-.8-1.2,4.53,4.53,0,0,1-.29-1.67v-.56c0-.2,0-.35,0-.45a1.58,1.58,0,0,1,.05-.25h-.39a.36.36,0,0,0-.26.11.3.3,0,0,0-.1.23V31.3H522V22.4a5.63,5.63,0,0,1,.24-1.65,3.73,3.73,0,0,1,2.14-2.37,4.84,4.84,0,0,1,2-.37h4.39a5,5,0,0,1,1.86.3,3.12,3.12,0,0,1,1.21.84,3.16,3.16,0,0,1,.64,1.25,5.85,5.85,0,0,1,.19,1.54v.59a.34.34,0,0,0,.11.24.37.37,0,0,0,.25.09h.8a.54.54,0,0,1,.22.05.52.52,0,0,1,.16.24,2.45,2.45,0,0,1,.08.59c0,.27,0,.63,0,1.09s0,.88,0,1.16a2.77,2.77,0,0,1-.08.63c0,.14-.1.22-.16.25A.54.54,0,0,1,535.86,26.91Zm-5.29-3.69a.71.71,0,0,0,.39-.11.39.39,0,0,0,.17-.35v-.59a.38.38,0,0,0-.18-.36.75.75,0,0,0-.38-.1.82.82,0,0,0-.42.1.4.4,0,0,0-.17.36v.59a.39.39,0,0,0,.17.35A.82.82,0,0,0,530.57,23.22Z"/>
            <path class="cls-3"
                  d="M536.65,22.86a.39.39,0,0,0,.26-.09.33.33,0,0,0,.1-.24V19.4h3.82v3.13a.3.3,0,0,0,.34.33h.8a.51.51,0,0,1,.22.05.39.39,0,0,1,.14.24,2.45,2.45,0,0,1,.08.59c0,.27,0,.63,0,1.09s0,.88,0,1.16a2.77,2.77,0,0,1-.08.63.34.34,0,0,1-.14.25.51.51,0,0,1-.22,0h-.65a6.74,6.74,0,0,1-1.32-.12,2,2,0,0,1-1-.57,2.51,2.51,0,0,1-1,.57,4.24,4.24,0,0,1-.94.12h-1.15a.48.48,0,0,1-.22,0,.32.32,0,0,1-.15-.24,3.1,3.1,0,0,1-.08-.6c0-.26,0-.63,0-1.09s0-.87,0-1.16a3.23,3.23,0,0,1,.08-.61.36.36,0,0,1,.15-.26.48.48,0,0,1,.22-.05ZM541.86,31h-6v-2.9h6Z"/>
            <path class="cls-3"
                  d="M543.12,22.86V22.4a7,7,0,0,1,.18-1.54,4.36,4.36,0,0,1,.65-1.5,3.87,3.87,0,0,1,1.27-1.13,4.16,4.16,0,0,1,2.06-.45,4.42,4.42,0,0,1,1.68.3,3.65,3.65,0,0,1,1.24.85,3.6,3.6,0,0,1,.76,1.3,5.16,5.16,0,0,1,.25,1.6,3.93,3.93,0,0,1-.06.65,4.14,4.14,0,0,1-.17.74,4.83,4.83,0,0,1,2.08-.36.39.39,0,0,1,.2.05.45.45,0,0,1,.15.24,3,3,0,0,1,.09.59c0,.27,0,.63,0,1.09s0,.88,0,1.16a3.33,3.33,0,0,1-.09.63c0,.14-.09.22-.15.25a.4.4,0,0,1-.2,0,1.61,1.61,0,0,0-.37,0,1.18,1.18,0,0,0-.45.18,3.16,3.16,0,0,0-.58.52,10.32,10.32,0,0,0-.79,1l-2,2.77h-2.08a4.28,4.28,0,0,1-1.45-.24,3.23,3.23,0,0,1-1.18-.74,3.43,3.43,0,0,1-.79-1.25,5.2,5.2,0,0,1-.28-1.76v-.53H542a.48.48,0,0,1-.22,0c-.07,0-.11-.11-.15-.24a3.28,3.28,0,0,1-.07-.6c0-.26,0-.63,0-1.09s0-.87,0-1.16a3.42,3.42,0,0,1,.07-.61c0-.14.08-.22.15-.26a.48.48,0,0,1,.22-.05Zm4.62-.69a.7.7,0,0,0-.16-.52.56.56,0,0,0-.41-.15c-.39,0-.58.26-.58.77V23h.23a1,1,0,0,0,.67-.23A.76.76,0,0,0,547.74,22.17Zm-1.15,4.64a2.15,2.15,0,0,0,.11.78.48.48,0,0,0,.47.25l.84-1.3a5.31,5.31,0,0,1-.68.2A4.32,4.32,0,0,1,546.59,26.81Z"/>
            <path class="cls-3"
                  d="M553.85,22.86a.37.37,0,0,0,.25-.09.34.34,0,0,0,.11-.24V19.4h3.69v3.13a.34.34,0,0,0,.11.24.37.37,0,0,0,.25.09.34.34,0,0,0,.34-.33V19.4h3.7v3.13a.33.33,0,0,0,.1.24.37.37,0,0,0,.25.09.34.34,0,0,0,.34-.33V19.4h3.69v3.46a4.54,4.54,0,0,1-.33,1.81,3.78,3.78,0,0,1-.91,1.26,3.6,3.6,0,0,1-1.29.74,4.71,4.71,0,0,1-1.5.24,5.62,5.62,0,0,1-1-.12,2,2,0,0,1-1-.57,2.79,2.79,0,0,1-1,.57,3.11,3.11,0,0,1-.72.12h-.57a5.62,5.62,0,0,1-1-.12,2.09,2.09,0,0,1-1.05-.57,2.45,2.45,0,0,1-1,.57,3.42,3.42,0,0,1-.74.12h-1.38a.56.56,0,0,1-.23,0,.34.34,0,0,1-.14-.24,3.1,3.1,0,0,1-.08-.6c0-.26,0-.63,0-1.09s0-.87,0-1.16a3.23,3.23,0,0,1,.08-.61.39.39,0,0,1,.14-.26.56.56,0,0,1,.23-.05Z"/>
            <path class="cls-3"
                  d="M575.67,31.53a6.45,6.45,0,0,1-2.32-.39A4.73,4.73,0,0,1,571.62,30a4.89,4.89,0,0,1-1.09-1.82,7,7,0,0,1-.38-2.41V21.37H574v4.49a1.55,1.55,0,0,0,.46,1.22,2.19,2.19,0,0,0,1.49.42h.7a2.28,2.28,0,0,0,1.61-.46,1.58,1.58,0,0,0,.49-1.18V14.1h3.8V25.63a6.64,6.64,0,0,1-.4,2.29A5.63,5.63,0,0,1,581,29.8a5.24,5.24,0,0,1-1.81,1.27,6,6,0,0,1-2.42.46Z"/>
            <path class="cls-3"
                  d="M588.84,22.86a.51.51,0,0,1,.22.05.45.45,0,0,1,.15.24,3.27,3.27,0,0,1,.07.59c0,.27,0,.63,0,1.09s0,.88,0,1.16a3.7,3.7,0,0,1-.07.63c0,.14-.09.22-.15.25a.51.51,0,0,1-.22,0h-1a4.56,4.56,0,0,1-1.84-.32,3.42,3.42,0,0,1-1.21-.87,3.61,3.61,0,0,1-.67-1.29,5.78,5.78,0,0,1-.21-1.57V14.1h3.82v8.43a.3.3,0,0,0,.34.33Z"/>
            <path class="cls-3"
                  d="M590.12,22.86a.35.35,0,0,0,.23-.09.34.34,0,0,0,.11-.24V19.4h3.8v3.46a5,5,0,0,1-.29,1.76,3.47,3.47,0,0,1-.79,1.27,3.24,3.24,0,0,1-1.2.76,4.22,4.22,0,0,1-1.52.26h-1.62a.48.48,0,0,1-.22,0,.38.38,0,0,1-.15-.24,3.28,3.28,0,0,1-.07-.6c0-.26,0-.63,0-1.09s0-.87,0-1.16a3.42,3.42,0,0,1,.07-.61.44.44,0,0,1,.15-.26.48.48,0,0,1,.22-.05ZM594.84,31h-6v-2.9h6Zm-1.51,3.46h-3v-2.9h3Z"/>
            <path class="cls-3"
                  d="M607.78,22.57a.28.28,0,0,0,.11.21.38.38,0,0,0,.23.08h.82a.46.46,0,0,1,.21.05.52.52,0,0,1,.14.24,3,3,0,0,1,.09.59c0,.27,0,.63,0,1.09s0,.88,0,1.16a3.33,3.33,0,0,1-.09.63.43.43,0,0,1-.14.25.46.46,0,0,1-.21,0h-.87a1.73,1.73,0,0,1-.42,0A6,6,0,0,1,607,28.7a5.18,5.18,0,0,1-1.18,1.49,5.46,5.46,0,0,1-1.69,1,6.36,6.36,0,0,1-2.14.35h-1a6.45,6.45,0,0,1-2.32-.39A4.85,4.85,0,0,1,596.9,30a5,5,0,0,1-1.09-1.82,7.25,7.25,0,0,1-.38-2.41V21.37h3.8v4.49a1.55,1.55,0,0,0,.47,1.22,2.16,2.16,0,0,0,1.49.42h.69A2.31,2.31,0,0,0,603.5,27a1.57,1.57,0,0,0,.48-1.18V19.4h3.8Zm-5-2.46H599V17.23h3.82Z"/>
            <path class="cls-3"
                  d="M614.82,22.86a.38.38,0,0,0,.25-.09.33.33,0,0,0,.1-.24V19.4H619v3.46a5,5,0,0,1-.28,1.76,3.36,3.36,0,0,1-.8,1.27,3.45,3.45,0,0,1-1.21.76,4.24,4.24,0,0,1-1.53.26h-6.23a.48.48,0,0,1-.22,0,.32.32,0,0,1-.15-.24,3.1,3.1,0,0,1-.08-.6c0-.26,0-.63,0-1.09s0-.87,0-1.16a3.23,3.23,0,0,1,.08-.61.36.36,0,0,1,.15-.26.48.48,0,0,1,.22-.05ZM616.1,31h-6v-2.9h6Z"/>
            <path class="cls-3"
                  d="M624.31,26a6.39,6.39,0,0,1-.4,2.23,5.82,5.82,0,0,1-1.11,1.83,5.26,5.26,0,0,1-1.72,1.25,5.15,5.15,0,0,1-2.21.47h-1l-.34-4h.92a2.25,2.25,0,0,0,1.61-.46,1.53,1.53,0,0,0,.48-1.15V19.4h3.82Z"/>
            <path class="cls-3"
                  d="M630.67,26a6.16,6.16,0,0,1-.4,2.23,5.82,5.82,0,0,1-1.11,1.83,5.32,5.32,0,0,1-1.71,1.25,5.23,5.23,0,0,1-2.22.47h-1.05l-.34-4h.93a2.28,2.28,0,0,0,1.61-.46,1.56,1.56,0,0,0,.47-1.15V19.4h3.82Zm0-7.75h-3.82V15.36h3.82Z"/>
            <path class="cls-3"
                  d="M639.2,22.63a.63.63,0,0,0-.05-.21c0-.08-.09-.24-.19-.48l-1.72-4.5,3.57-1.61,2.56,6.7a.47.47,0,0,0,.47.33h.67a.54.54,0,0,1,.22.05.45.45,0,0,1,.15.24,4.54,4.54,0,0,1,.07.59c0,.27,0,.63,0,1.09s0,.88,0,1.16a5.14,5.14,0,0,1-.07.63c0,.14-.09.22-.15.25a.54.54,0,0,1-.22,0h-1a5.52,5.52,0,0,1-1-.12,2,2,0,0,1-1.05-.57,2.77,2.77,0,0,1-1,.57,2.85,2.85,0,0,1-.78.12h-5.32L634,22.86h4.91C639.1,22.86,639.2,22.78,639.2,22.63Z"/>
            <path class="cls-3"
                  d="M645.31,22.86a.38.38,0,0,0,.25-.09.33.33,0,0,0,.1-.24,4.66,4.66,0,0,1,1.13-3.31A4,4,0,0,1,649.86,18a3.84,3.84,0,0,1,3.09,1.2,4.69,4.69,0,0,1,1,3.19,4.64,4.64,0,0,1-1.14,3.31,4.07,4.07,0,0,1-3.12,1.2,4.4,4.4,0,0,1-1.2-.16,2.78,2.78,0,0,1-1-.53,2.16,2.16,0,0,1-.53.36,4.65,4.65,0,0,1-.63.21,4.6,4.6,0,0,1-.79.1c-.3,0-.65,0-1,0a.48.48,0,0,1-.22,0,.38.38,0,0,1-.15-.24,3.28,3.28,0,0,1-.07-.6c0-.26,0-.63,0-1.09s0-.87,0-1.16a3.42,3.42,0,0,1,.07-.61.44.44,0,0,1,.15-.26.48.48,0,0,1,.22-.05Zm3.82-.46c0,.29.06.48.19.57a.83.83,0,0,0,.46.12.79.79,0,0,0,.42-.12.69.69,0,0,0,.19-.57c0-.46-.21-.69-.61-.69S649.13,21.94,649.13,22.4Z"/>
            <path class="cls-3"
                  d="M655.83,15.24a1.58,1.58,0,0,0-.43,0,.7.7,0,0,0-.33.35l-.75,1.45-2.42-1.28.8-1.73a6.47,6.47,0,0,1,.54-1,2.35,2.35,0,0,1,.61-.61,2.24,2.24,0,0,1,.81-.31,7.57,7.57,0,0,1,1.17-.08h4.39v3.13Zm-.57,1.15h3.82V26.91h-3.82Z"/>
            <path class="cls-3"
                  d="M664.52,26a6.16,6.16,0,0,1-.4,2.23A5.48,5.48,0,0,1,663,30.05a5.32,5.32,0,0,1-1.71,1.25,5.23,5.23,0,0,1-2.22.47h-2.31l-.36-4h2.21a2.26,2.26,0,0,0,1.61-.46,1.56,1.56,0,0,0,.47-1.15V19.4h3.82Z"/>
            <path class="cls-3"
                  d="M667.52,18.6l2.88-2.77,3.7,4.51a5.32,5.32,0,0,1,1,1.7,4.74,4.74,0,0,1,.24,1.41,3.71,3.71,0,0,1-.24,1.34,3.15,3.15,0,0,1-.73,1.11,3.4,3.4,0,0,1-1.23.74,5.11,5.11,0,0,1-1.75.27h-5.54l-.34-4.05h4.85c.22,0,.34-.09.34-.27a.82.82,0,0,0-.24-.48Z"/>
            <path class="cls-3"
                  d="M684.68,26a6.16,6.16,0,0,1-.4,2.23,5.82,5.82,0,0,1-1.11,1.83,5.32,5.32,0,0,1-1.71,1.25,5.23,5.23,0,0,1-2.22.47h-2.31l-.36-4h2.21a2.28,2.28,0,0,0,1.61-.46,1.56,1.56,0,0,0,.47-1.15V19.4h3.82Zm0-7.75h-3.82V15.36h3.82Z"/>
            <path class="cls-3" d="M685.94,14.1h3.82V26.91h-3.82Z"/>
            <path class="cls-4"
                  d="M703,22.63a.59.59,0,0,0,0-.21c0-.08-.09-.24-.19-.48l-1.72-4.5,3.57-1.61,2.56,6.7a.47.47,0,0,0,.46.33h.67a.56.56,0,0,1,.23.05.39.39,0,0,1,.14.24,3.1,3.1,0,0,1,.08.59c0,.27,0,.63,0,1.09s0,.88,0,1.16a3.5,3.5,0,0,1-.08.63.34.34,0,0,1-.14.25.56.56,0,0,1-.23,0h-1a5.43,5.43,0,0,1-1-.12,2,2,0,0,1-1-.57,2.77,2.77,0,0,1-1,.57,3,3,0,0,1-.79.12h-5.31l-.34-4.05h4.92C702.94,22.86,703,22.78,703,22.63Z"/>
            <path class="cls-4"
                  d="M709.14,22.86a.41.41,0,0,0,.26-.09.33.33,0,0,0,.1-.24V19.4h3.82v2.43a10.75,10.75,0,0,1,2.71-3,5,5,0,0,1,2.84-1,3.68,3.68,0,0,1,1.57.33,3.73,3.73,0,0,1,1.24.91,4.22,4.22,0,0,1,.81,1.4,5.22,5.22,0,0,1,.28,1.75,5.68,5.68,0,0,1-.26,1.69,4.08,4.08,0,0,1-.83,1.48,4.22,4.22,0,0,1-1.44,1.06,5,5,0,0,1-2.07.39h-4.62a6.58,6.58,0,0,1-1.29-.12,2.06,2.06,0,0,1-1-.57,2.39,2.39,0,0,1-1,.57,4.09,4.09,0,0,1-.93.12h-.93a.54.54,0,0,1-.22,0,.34.34,0,0,1-.14-.24,3.1,3.1,0,0,1-.08-.6c0-.26,0-.63,0-1.09s0-.87,0-1.16a3.23,3.23,0,0,1,.08-.61.39.39,0,0,1,.14-.26.54.54,0,0,1,.22-.05Zm9.26.13a.66.66,0,0,0,.53-.2.72.72,0,0,0,.17-.45.61.61,0,0,0-.18-.43.59.59,0,0,0-.47-.2,1.38,1.38,0,0,0-.75.33c-.3.23-.68.54-1.14.95Z"/>
            <path class="cls-4"
                  d="M728.11,26a6.39,6.39,0,0,1-.4,2.23,5.67,5.67,0,0,1-1.12,1.83,5.23,5.23,0,0,1-3.92,1.72h-2.31l-.36-4h2.2a2.25,2.25,0,0,0,1.61-.46,1.52,1.52,0,0,0,.47-1.15V19.4h3.83Z"/>
            <path class="cls-4"
                  d="M731.11,18.6,734,15.83l3.69,4.51a5.32,5.32,0,0,1,1,1.7,4.74,4.74,0,0,1,.24,1.41,3.71,3.71,0,0,1-.24,1.34A3.13,3.13,0,0,1,738,25.9a3.57,3.57,0,0,1-1.23.74,5.17,5.17,0,0,1-1.76.27h-5.54l-.33-4.05H734q.33,0,.33-.27a.86.86,0,0,0-.23-.48Z"/>
            <path class="cls-4"
                  d="M747.38,23h-.25a.54.54,0,0,1-.21,0v5.13h-3.8V23c0-.66,0-1.27-.06-1.82s-.11-1.09-.2-1.61-.21-1-.34-1.54-.28-1.05-.45-1.63l3.7-1.26.81,3.47c.06.26.18.4.36.4s.32-.14.32-.4c0-.07,0-.33-.1-.79s-.18-1.12-.34-2l3.8-.7c.18.93.3,1.71.37,2.36s.09,1.16.09,1.57a4.83,4.83,0,0,1-.25,1.54,3.53,3.53,0,0,1-.73,1.25,3.28,3.28,0,0,1-1.16.83A3.71,3.71,0,0,1,747.38,23Z"/>
            <path class="cls-4"
                  d="M756.52,17.9a3.85,3.85,0,0,1,1.61.36,5.17,5.17,0,0,1,1.4.95,4.65,4.65,0,0,1,1,1.36,3.65,3.65,0,0,1,.38,1.6,3.59,3.59,0,0,1-.38,1.6,4.83,4.83,0,0,1-1,1.37,5,5,0,0,1-1.4,1,3.92,3.92,0,0,1-3.24,0,5.18,5.18,0,0,1-1.41-1,4.58,4.58,0,0,1-1-1.37,3.58,3.58,0,0,1-.37-1.6,3.64,3.64,0,0,1,.37-1.6,4.42,4.42,0,0,1,1-1.36,5.38,5.38,0,0,1,1.41-.95A3.87,3.87,0,0,1,756.52,17.9Zm0,5a.62.62,0,0,0,.47-.21.69.69,0,0,0,.2-.48.65.65,0,0,0-.2-.47.61.61,0,0,0-.47-.2.66.66,0,0,0-.5.2.65.65,0,0,0-.2.47.69.69,0,0,0,.2.48A.67.67,0,0,0,756.52,22.86Z"/>
            <path class="cls-3"
                  d="M777.14,26a6.39,6.39,0,0,1-.4,2.23,5.82,5.82,0,0,1-1.11,1.83,5.26,5.26,0,0,1-1.72,1.25,5.15,5.15,0,0,1-2.21.47h-2.31l-.36-4h2.21a2.23,2.23,0,0,0,1.6-.46,1.53,1.53,0,0,0,.48-1.15V19.4h3.82Z"/>
            <path class="cls-3"
                  d="M780.14,18.6,783,15.83l3.69,4.51a5.14,5.14,0,0,1,1,1.7,4.74,4.74,0,0,1,.24,1.41,3.71,3.71,0,0,1-.24,1.34A3.13,3.13,0,0,1,787,25.9a3.4,3.4,0,0,1-1.23.74,5.15,5.15,0,0,1-1.75.27H778.5l-.33-4.05H783q.33,0,.33-.27a.8.8,0,0,0-.23-.48Z"/>
            <path class="cls-3"
                  d="M802.55,26.45a7.08,7.08,0,0,1-.39,2.45,4.8,4.8,0,0,1-1.1,1.77,4.62,4.62,0,0,1-1.69,1.08,5.92,5.92,0,0,1-2.13.37h-3.13l-.23-4h3.59a1.39,1.39,0,0,0,1-.27,1.2,1.2,0,0,0,.29-.89h-.34a6.47,6.47,0,0,1-2.14-.29,3,3,0,0,1-1.31-.83,2.91,2.91,0,0,1-.66-1.31,7.66,7.66,0,0,1-.17-1.72,5.5,5.5,0,0,1,.27-1.73,4.12,4.12,0,0,1,.81-1.43,3.7,3.7,0,0,1,1.31-1,4,4,0,0,1,1.76-.37,5.21,5.21,0,0,1,1.64.25,3.59,3.59,0,0,1,1.37.81,3.94,3.94,0,0,1,.93,1.43,5.79,5.79,0,0,1,.35,2.13ZM797.7,22.5a1,1,0,0,0,.12.53.69.69,0,0,0,.57.19H799v-.59c0-.53-.22-.8-.65-.8S797.7,22.06,797.7,22.5Z"/>
            <path class="cls-3"
                  d="M811.07,22.63a.59.59,0,0,0,0-.21c0-.08-.09-.24-.19-.48l-1.72-4.5,3.57-1.61,2.56,6.7a.47.47,0,0,0,.46.33h.68a.54.54,0,0,1,.22.05.39.39,0,0,1,.14.24,3.1,3.1,0,0,1,.08.59c0,.27,0,.63,0,1.09s0,.88,0,1.16a3.5,3.5,0,0,1-.08.63.34.34,0,0,1-.14.25.54.54,0,0,1-.22,0h-1a5.43,5.43,0,0,1-1-.12,2,2,0,0,1-1.05-.57,2.77,2.77,0,0,1-1,.57,2.91,2.91,0,0,1-.78.12h-5.32l-.33-4.05h4.91C811,22.86,811.07,22.78,811.07,22.63Z"/>
            <path class="cls-3"
                  d="M817.67,22.86a.35.35,0,0,0,.23-.09.33.33,0,0,0,.1-.24V19.4h3.8v3.46a5,5,0,0,1-.28,1.76,3.47,3.47,0,0,1-.79,1.27,3.32,3.32,0,0,1-1.2.76,4.24,4.24,0,0,1-1.53.26h-1.61a.56.56,0,0,1-.23,0,.34.34,0,0,1-.14-.24,3.1,3.1,0,0,1-.08-.6c0-.26,0-.63,0-1.09s0-.87,0-1.16a3.23,3.23,0,0,1,.08-.61.39.39,0,0,1,.14-.26.56.56,0,0,1,.23-.05ZM822.39,31h-6v-2.9h6Z"/>
            <path class="cls-3"
                  d="M832.91,22.86a.41.41,0,0,1,.21.05.45.45,0,0,1,.14.24,3.27,3.27,0,0,1,.07.59c0,.27,0,.63,0,1.09s0,.88,0,1.16a3.7,3.7,0,0,1-.07.63c0,.14-.08.22-.14.25a.41.41,0,0,1-.21,0h-1.19a6.55,6.55,0,0,1-.48,2.25,4.83,4.83,0,0,1-1.1,1.63,4.64,4.64,0,0,1-1.64,1,6.18,6.18,0,0,1-2.06.33h-3.12l-.24-4h3.6a1.39,1.39,0,0,0,1-.27,1.2,1.2,0,0,0,.29-.89h-.34a6.47,6.47,0,0,1-2.14-.29,3,3,0,0,1-1.31-.83,2.91,2.91,0,0,1-.66-1.31,8.29,8.29,0,0,1-.17-1.72,5.5,5.5,0,0,1,.27-1.73,4.12,4.12,0,0,1,.81-1.43,3.7,3.7,0,0,1,1.31-1,4,4,0,0,1,1.76-.37,5.21,5.21,0,0,1,1.64.25,3.66,3.66,0,0,1,1.37.81,3.94,3.94,0,0,1,.93,1.43,5.79,5.79,0,0,1,.35,2.13Zm-6-.36A1,1,0,0,0,827,23a.69.69,0,0,0,.57.19h.57v-.59c0-.53-.22-.8-.65-.8S826.91,22.06,826.91,22.5Z"/>
            <path class="cls-3"
                  d="M833.71,22.86a.37.37,0,0,0,.25-.09.34.34,0,0,0,.11-.24V19.4h3.69v3.13a.34.34,0,0,0,.11.24.37.37,0,0,0,.25.09.35.35,0,0,0,.23-.09.34.34,0,0,0,.11-.24V19.4h3.69v3.13a.34.34,0,0,0,.11.24.37.37,0,0,0,.25.09.35.35,0,0,0,.23-.09.33.33,0,0,0,.1-.24V19.4h3.7v3.46a4.54,4.54,0,0,1-.33,1.81,3.61,3.61,0,0,1-2.2,2,4.71,4.71,0,0,1-1.5.24,5.62,5.62,0,0,1-1-.12,1.92,1.92,0,0,1-1-.57,2.79,2.79,0,0,1-1,.57,3.11,3.11,0,0,1-.72.12h-.57a5.62,5.62,0,0,1-1-.12,2.05,2.05,0,0,1-1.05-.57,2.48,2.48,0,0,1-1,.57,3.26,3.26,0,0,1-.73.12h-1.39a.51.51,0,0,1-.22,0,.34.34,0,0,1-.14-.24,3.1,3.1,0,0,1-.08-.6c0-.26,0-.63,0-1.09s0-.87,0-1.16a3.23,3.23,0,0,1,.08-.61.39.39,0,0,1,.14-.26.51.51,0,0,1,.22-.05Zm9.37-4.62h-6V15.36h6Zm-1.51-3.46h-3V11.9h3Z"/>
            <path class="cls-3"
                  d="M855.07,22.86a.51.51,0,0,1,.22.05.39.39,0,0,1,.14.24,3.1,3.1,0,0,1,.08.59c0,.27,0,.63,0,1.09s0,.88,0,1.16a3.5,3.5,0,0,1-.08.63.34.34,0,0,1-.14.25.51.51,0,0,1-.22,0h-1a4.56,4.56,0,0,1-1.84-.32,3.33,3.33,0,0,1-1.21-.87,3.45,3.45,0,0,1-.67-1.29,5.78,5.78,0,0,1-.21-1.57V14.1h3.82v8.43a.3.3,0,0,0,.34.33Z"/>
            <path class="cls-3"
                  d="M855.86,22.86a.39.39,0,0,0,.26-.09.33.33,0,0,0,.1-.24,4.7,4.7,0,0,1,1.12-3.31A4,4,0,0,1,860.42,18a3.86,3.86,0,0,1,3.09,1.2,4.74,4.74,0,0,1,1,3.19,4.64,4.64,0,0,1-1.14,3.31,4.09,4.09,0,0,1-3.13,1.2,4.38,4.38,0,0,1-1.19-.16,2.78,2.78,0,0,1-1-.53,2,2,0,0,1-.54.36,4.22,4.22,0,0,1-.63.21,4.35,4.35,0,0,1-.78.1c-.3,0-.65,0-1,0a.48.48,0,0,1-.22,0c-.07,0-.11-.11-.15-.24a2.58,2.58,0,0,1-.07-.6c0-.26,0-.63,0-1.09s0-.87,0-1.16a2.68,2.68,0,0,1,.07-.61c0-.14.08-.22.15-.26a.48.48,0,0,1,.22-.05Zm3.83-.46c0,.29.06.48.19.57a.81.81,0,0,0,.46.12.79.79,0,0,0,.42-.12.69.69,0,0,0,.19-.57c0-.46-.21-.69-.61-.69S859.69,21.94,859.69,22.4Z"/>
            <path class="cls-3"
                  d="M884.65,22.53a.3.3,0,0,0,.34.33.37.37,0,0,0,.25-.09.34.34,0,0,0,.11-.24V19.4H889v3.46a4.54,4.54,0,0,1-.33,1.81,3.78,3.78,0,0,1-.91,1.26,3.6,3.6,0,0,1-1.29.74,4.71,4.71,0,0,1-1.5.24,5.52,5.52,0,0,1-1-.12,2.09,2.09,0,0,1-1.05-.57,2.65,2.65,0,0,1-1,.57,3.17,3.17,0,0,1-.74.12,3.83,3.83,0,0,1-.83-.08,2,2,0,0,1-.66-.25l.56-.95a6.87,6.87,0,0,1-.37,2.29,5.38,5.38,0,0,1-1.11,1.88A5.08,5.08,0,0,1,877,31.07a5.86,5.86,0,0,1-2.39.46h-1.05a6.41,6.41,0,0,1-2.32-.39A4.85,4.85,0,0,1,869.49,30a5,5,0,0,1-1.09-1.82,7.25,7.25,0,0,1-.38-2.41V21.37h3.8v4.49a1.55,1.55,0,0,0,.47,1.22,2.16,2.16,0,0,0,1.49.42h.69a2.29,2.29,0,0,0,1.62-.46,1.57,1.57,0,0,0,.48-1.18V19.4h3.67v3.13a.34.34,0,0,0,.11.24.37.37,0,0,0,.25.09c.23,0,.34-.11.34-.33V19.4h3.71Zm1-4.29h-6V15.36h6Zm-1.51-3.46h-3V11.9h3Z"/>
            <path class="cls-3"
                  d="M899,26.45a7.08,7.08,0,0,1-.39,2.45,4.8,4.8,0,0,1-1.1,1.77,4.62,4.62,0,0,1-1.69,1.08,5.94,5.94,0,0,1-2.14.37h-3.12l-.23-4h3.59a1.39,1.39,0,0,0,1-.27,1.2,1.2,0,0,0,.28-.89h-.33a6.47,6.47,0,0,1-2.14-.29,3,3,0,0,1-1.31-.83,2.91,2.91,0,0,1-.66-1.31,7.66,7.66,0,0,1-.17-1.72,5.5,5.5,0,0,1,.27-1.73,4.12,4.12,0,0,1,.81-1.43,3.7,3.7,0,0,1,1.31-1,4,4,0,0,1,1.76-.37,5.21,5.21,0,0,1,1.64.25,3.59,3.59,0,0,1,1.37.81,3.94,3.94,0,0,1,.93,1.43,5.79,5.79,0,0,1,.35,2.13Zm-4.85-3.95a1,1,0,0,0,.12.53.69.69,0,0,0,.57.19h.57v-.59c0-.53-.22-.8-.65-.8S894.13,22.06,894.13,22.5Z"/>
            <path class="cls-3"
                  d="M899.44,27.73a2.28,2.28,0,0,0,1.61-.46,1.56,1.56,0,0,0,.47-1.15V19.4h3.82v3.17c0,.19.11.29.34.29h.79a.48.48,0,0,1,.22.05.36.36,0,0,1,.15.24,2.55,2.55,0,0,1,.07.59c0,.27,0,.63,0,1.09s0,.88,0,1.16a2.89,2.89,0,0,1-.07.63c0,.14-.08.22-.15.25a.48.48,0,0,1-.22,0h-.33a5.61,5.61,0,0,1-.88-.06,6.11,6.11,0,0,1-.57,1.92,5.23,5.23,0,0,1-2.76,2.61,5.31,5.31,0,0,1-2,.39h-1l-.34-4Z"/>
            <path class="cls-3"
                  d="M907.86,22.86a5,5,0,0,1-.18-.69,5.16,5.16,0,0,1,0-.67,4.23,4.23,0,0,1,.26-1.42,4,4,0,0,1,.79-1.3,4,4,0,0,1,1.33-1,4.44,4.44,0,0,1,1.88-.38,5.68,5.68,0,0,1,1.68.25,3.39,3.39,0,0,1,1.33.8,3.87,3.87,0,0,1,.86,1.43,6.41,6.41,0,0,1,.31,2.14v.8a4.45,4.45,0,0,1-.28,1.62,3.39,3.39,0,0,1-.87,1.28,4.2,4.2,0,0,1-1.48.85,6.69,6.69,0,0,1-2.12.3h-4.85a.54.54,0,0,1-.22,0,.34.34,0,0,1-.14-.24A3.1,3.1,0,0,1,906,26c0-.26,0-.63,0-1.09s0-.87,0-1.16a3.23,3.23,0,0,1,.08-.61.39.39,0,0,1,.14-.26.54.54,0,0,1,.22-.05Zm5.9-6.57h-3.82V13.41h3.82ZM912.35,23a.9.9,0,0,0,.12-.42c0-.17,0-.34,0-.51a1.47,1.47,0,0,0-.14-.64.54.54,0,0,0-.55-.28.55.55,0,0,0-.57.57,1.27,1.27,0,0,0,.18.58A2,2,0,0,0,912.35,23Z"/>
            <path class="cls-3"
                  d="M925.37,26a6.16,6.16,0,0,1-.4,2.23,5.48,5.48,0,0,1-1.11,1.83,5.23,5.23,0,0,1-3.93,1.72h-2.31l-.35-4h2.2a2.26,2.26,0,0,0,1.61-.46,1.56,1.56,0,0,0,.47-1.15V19.4h3.82Z"/>
            <path class="cls-3"
                  d="M931.59,22.86a.51.51,0,0,1,.22.05.45.45,0,0,1,.15.24,3.27,3.27,0,0,1,.07.59c0,.27,0,.63,0,1.09s0,.88,0,1.16a3.7,3.7,0,0,1-.07.63c0,.14-.09.22-.15.25a.51.51,0,0,1-.22,0h-1a4.56,4.56,0,0,1-1.84-.32,3.42,3.42,0,0,1-1.21-.87,3.61,3.61,0,0,1-.67-1.29,5.78,5.78,0,0,1-.21-1.57V14.1h3.82v8.43a.3.3,0,0,0,.34.33Z"/>
            <path class="cls-3"
                  d="M935.75,22.86c.24,0,.35-.09.35-.27a.68.68,0,0,0-.23-.42l-3.82-3.8V15.6l8.21-3,.93,3.8-4.06,1.51,1.62,1.62c.76.76,1.38,1.36,1.88,1.8a15.33,15.33,0,0,0,1.26,1,3.21,3.21,0,0,0,.87.44,3,3,0,0,0,.72.09h.35a.41.41,0,0,1,.21.05.45.45,0,0,1,.15.24,2.45,2.45,0,0,1,.08.59c0,.27,0,.63,0,1.09s0,.88,0,1.16a2.77,2.77,0,0,1-.08.63c0,.14-.09.22-.15.25a.41.41,0,0,1-.21,0h-.35c-.49,0-.92,0-1.28,0a5.4,5.4,0,0,1-1-.14,3.19,3.19,0,0,1-.8-.35,4.45,4.45,0,0,1-.77-.63,3.14,3.14,0,0,1-1.3.88,5,5,0,0,1-1.7.27h-5.08a.48.48,0,0,1-.22,0,.38.38,0,0,1-.15-.24,3.28,3.28,0,0,1-.07-.6c0-.26,0-.63,0-1.09s0-.87,0-1.16a3.42,3.42,0,0,1,.07-.61.44.44,0,0,1,.15-.26.48.48,0,0,1,.22-.05Z"/>
            <path class="cls-3"
                  d="M945,22.53a4.66,4.66,0,0,1,1.12-3.31A4,4,0,0,1,949.19,18a3.82,3.82,0,0,1,3.08,1.2,4.69,4.69,0,0,1,1,3.19v.13a.34.34,0,0,0,.11.24.37.37,0,0,0,.25.09h.8a.46.46,0,0,1,.21.05.62.62,0,0,1,.15.24,2.45,2.45,0,0,1,.08.59c0,.27,0,.63,0,1.09s0,.88,0,1.16a2.77,2.77,0,0,1-.08.63.48.48,0,0,1-.15.25.46.46,0,0,1-.21,0,10.31,10.31,0,0,1-1.6-.11,3.25,3.25,0,0,1-1.36-.54,4.52,4.52,0,0,1-2.46.65,4.45,4.45,0,0,1-1.2-.16,2.87,2.87,0,0,1-1-.53,1.84,1.84,0,0,1-.53.36,4.65,4.65,0,0,1-.63.21,4.35,4.35,0,0,1-.79.1c-.29,0-.64,0-1,0a.51.51,0,0,1-.22,0,.34.34,0,0,1-.14-.24,2.47,2.47,0,0,1-.08-.6c0-.26,0-.63,0-1.09s0-.87,0-1.16a2.57,2.57,0,0,1,.08-.61.39.39,0,0,1,.14-.26.51.51,0,0,1,.22-.05h.8a.37.37,0,0,0,.25-.09A.34.34,0,0,0,945,22.53Zm3.46-.13c0,.29.06.48.19.57a.85.85,0,0,0,.46.12.74.74,0,0,0,.42-.12c.13-.09.19-.28.19-.57,0-.46-.2-.69-.61-.69S948.45,21.94,948.45,22.4Z"/>
            <path class="cls-3"
                  d="M955.74,22.86a3,3,0,0,1-.13-1,3.5,3.5,0,0,1,.32-1.44,4,4,0,0,1,.88-1.26,4.43,4.43,0,0,1,1.38-.89A4.75,4.75,0,0,1,960,17.9a3.11,3.11,0,0,1,1,.15l2.12-2.1,4.2,4.45a4.35,4.35,0,0,1,1,1.46,4,4,0,0,1,.25,1.36,3.86,3.86,0,0,1-.27,1.45,3.49,3.49,0,0,1-.8,1.17,3.74,3.74,0,0,1-1.27.79,4.72,4.72,0,0,1-1.69.28H962q-.72,0-1.32,0a4,4,0,0,1-1.12-.2,6.86,6.86,0,0,1-1.47.2l-1.3,0h-2.31a.48.48,0,0,1-.22,0c-.07,0-.11-.11-.15-.24A3.28,3.28,0,0,1,954,26c0-.26,0-.63,0-1.09s0-.87,0-1.16a3.42,3.42,0,0,1,.07-.61c0-.14.08-.22.15-.26a.48.48,0,0,1,.22-.05Zm3.86.13a1.58,1.58,0,0,0,.46-.43,1.15,1.15,0,0,0,.17-.62.7.7,0,0,0-.16-.46.58.58,0,0,0-.47-.21.56.56,0,0,0-.46.21.71.71,0,0,0-.17.46,1.08,1.08,0,0,0,.18.62A1.68,1.68,0,0,0,959.6,23Zm5-.42a.29.29,0,0,0,0-.16,1.46,1.46,0,0,0-.15-.2l-.31-.33-.53-.51v.13a3.57,3.57,0,0,1-.07.76,5.1,5.1,0,0,1-.16.6h.8a.65.65,0,0,0,.37-.07A.28.28,0,0,0,964.62,22.57Z"/>
        </g>
    </g>
</svg>
